<?xml version="1.0" standalone="no"?>
<!DOCTYPE svg PUBLIC "-//W3C//DTD SVG 20010904//EN"
 "http://www.w3.org/TR/2001/REC-SVG-20010904/DTD/svg10.dtd">
<svg version="1.0" xmlns="http://www.w3.org/2000/svg"
 width="937.000000pt" height="937.000000pt" viewBox="0 0 937.000000 937.000000"
 preserveAspectRatio="xMidYMid meet">
<metadata>
Created by potrace 1.11, written by Peter Selinger 2001-2013
</metadata>
<g transform="translate(0.000000,937.000000) scale(0.100000,-0.100000)"
fill="#000000" stroke="none">
<path d="M4477 9364 c-3 -3 6 -17 21 -30 36 -32 34 -30 142 -111 163 -121 196
-157 219 -238 18 -64 -19 -130 -94 -166 -64 -32 -140 -40 -233 -26 -69 10
-118 30 -308 125 -98 49 -197 97 -219 107 -22 9 -49 21 -60 26 -36 16 -170 70
-180 73 -5 2 -17 6 -25 9 -99 39 -380 120 -380 110 0 -3 -6 -1 -12 4 -7 6 -20
11 -28 11 -14 0 -24 2 -95 19 -33 7 -38 8 -105 18 -25 3 -61 8 -80 11 -47 7
-124 15 -186 18 -27 1 -56 6 -62 10 -7 4 -12 3 -12 -2 0 -9 -58 -7 -67 2 -3 2
-18 0 -34 -4 -16 -5 -29 -5 -29 0 0 5 -13 5 -30 0 -18 -5 -32 -5 -36 1 -3 5
-10 7 -15 3 -5 -3 -42 -8 -82 -10 -39 -3 -92 -6 -117 -8 -64 -5 -135 -15 -285
-42 -49 -9 -99 -18 -110 -19 -11 -2 -20 -4 -20 -5 0 -2 -15 -5 -60 -14 -16 -3
-97 -24 -180 -46 -82 -23 -159 -43 -170 -45 -38 -9 -60 -15 -125 -33 -65 -18
-76 -21 -95 -28 -21 -8 -142 -35 -174 -40 -19 -2 -37 -7 -42 -9 -4 -3 -28 -8
-52 -10 -25 -3 -55 -8 -67 -10 -141 -27 -325 -26 -476 4 -100 20 -292 99 -332
138 -7 7 -17 13 -22 13 -5 0 -15 6 -22 13 -7 7 -28 23 -46 36 l-33 23 6 -89
c3 -48 7 -99 9 -113 3 -14 7 -42 10 -64 4 -21 9 -42 12 -47 2 -5 7 -21 9 -36
5 -35 29 -100 61 -170 13 -30 24 -55 24 -58 0 -7 72 -129 109 -184 20 -29 41
-61 46 -70 6 -9 12 -18 15 -21 3 -3 30 -39 60 -80 30 -41 58 -79 63 -85 37
-46 164 -229 215 -307 107 -166 259 -486 288 -603 4 -16 11 -36 17 -42 5 -7 7
-13 3 -13 -3 0 -1 -12 5 -27 6 -16 12 -35 14 -43 2 -8 10 -40 19 -70 8 -30 18
-70 21 -89 3 -19 7 -37 9 -40 2 -3 7 -22 10 -41 3 -19 8 -46 11 -60 3 -14 7
-38 10 -55 3 -16 7 -43 10 -60 8 -46 14 -85 20 -137 3 -27 7 -67 10 -90 33
-262 38 -856 10 -1178 -4 -49 -15 -197 -20 -270 -2 -25 -4 -45 -5 -45 -1 0 -3
-18 -5 -40 -7 -85 -15 -161 -20 -185 -3 -14 -8 -41 -10 -60 -2 -19 -7 -51 -10
-70 -17 -112 -25 -190 -31 -303 -11 -199 -11 -272 0 -279 8 -5 8 -8 0 -8 -6 0
-9 -24 -8 -62 3 -95 15 -290 18 -318 2 -14 7 -54 11 -90 9 -85 12 -108 20
-150 3 -19 8 -48 11 -65 3 -16 7 -39 9 -50 2 -11 7 -35 10 -54 12 -62 34 -155
54 -231 11 -41 27 -102 36 -135 9 -33 20 -69 24 -80 5 -11 24 -63 41 -115 32
-94 45 -127 80 -205 10 -22 21 -51 25 -65 12 -38 179 -366 225 -440 22 -36 45
-76 52 -90 7 -14 19 -31 26 -38 7 -8 20 -28 28 -45 9 -16 24 -39 35 -50 10
-11 25 -35 34 -53 9 -19 20 -34 24 -34 4 0 13 -10 19 -22 5 -13 21 -36 34 -52
32 -40 80 -101 98 -124 78 -101 418 -462 435 -462 2 0 15 -10 27 -22 27 -26
108 -95 153 -130 16 -13 37 -30 46 -38 23 -22 49 -42 92 -70 20 -14 37 -28 37
-32 0 -5 6 -8 13 -8 8 0 22 -9 32 -20 10 -11 24 -20 31 -20 7 0 14 -3 16 -8 1
-4 28 -24 58 -43 142 -93 190 -120 201 -113 7 4 9 3 6 -3 -4 -5 6 -16 21 -24
15 -8 29 -16 32 -19 13 -14 366 -183 455 -218 55 -21 109 -43 120 -47 11 -5
22 -9 25 -10 3 -1 20 -6 38 -10 17 -4 32 -11 32 -15 0 -3 6 -7 13 -8 14 -1 36
-7 57 -15 20 -7 88 -28 103 -31 7 -2 19 -5 27 -8 32 -12 143 -39 298 -72 108
-23 163 -33 227 -42 17 -2 48 -6 70 -9 22 -3 60 -8 85 -12 227 -31 729 -30
930 2 19 3 55 8 80 10 57 6 89 11 220 37 58 11 118 22 133 24 15 2 35 8 45 13
9 5 20 9 25 10 4 1 8 1 10 2 1 0 13 2 27 4 32 6 65 13 65 15 0 1 10 3 23 6 33
6 350 112 387 129 17 7 37 15 45 17 8 2 17 6 20 10 3 4 19 9 35 12 16 3 31 10
33 16 2 5 10 10 18 10 23 0 344 161 344 172 0 6 3 9 6 5 10 -9 61 20 68 38 3
9 10 14 16 10 8 -5 154 79 191 111 9 8 19 11 22 7 4 -3 7 -1 7 5 0 6 12 18 28
26 26 13 148 101 202 145 14 11 41 33 60 48 20 15 42 34 50 40 146 125 219
193 321 298 97 101 135 142 179 195 19 24 40 48 45 54 57 63 225 291 282 382
156 247 284 496 378 733 32 80 58 150 59 155 1 6 19 61 39 122 20 61 38 122
41 136 2 15 9 35 15 46 6 11 8 22 5 24 -2 3 0 16 5 30 5 14 12 38 15 54 11 60
17 90 23 109 3 11 8 31 9 45 2 14 7 45 13 70 5 25 12 68 16 95 4 28 9 61 11
75 4 24 6 42 21 190 3 36 6 134 7 217 1 84 4 153 8 153 3 0 4 8 2 18 -2 9 -5
80 -8 157 -3 77 -8 158 -10 180 -3 22 -7 67 -10 100 -4 33 -8 71 -10 85 -2 14
-6 45 -10 70 -14 97 -38 236 -43 250 -3 8 -8 24 -10 35 -18 102 -28 148 -77
330 -1 6 -11 37 -21 70 -10 33 -19 65 -20 70 -7 28 -35 116 -53 161 -12 29
-18 55 -15 58 4 3 1 6 -6 6 -8 0 -11 7 -7 15 3 8 0 15 -6 15 -6 0 -8 3 -5 7 4
3 2 12 -4 20 -6 7 -8 13 -5 13 4 0 0 12 -8 28 -8 15 -22 47 -31 72 -21 57 -43
108 -61 142 -8 15 -14 30 -14 33 1 7 -33 80 -107 232 -31 61 -55 115 -53 119
1 4 -2 10 -7 13 -5 3 -23 31 -39 61 -16 30 -31 57 -34 60 -3 3 -12 18 -20 35
-49 97 -303 492 -355 551 -5 7 -19 24 -30 40 -51 71 -131 175 -165 213 -8 9
-37 43 -63 76 -106 130 -439 475 -554 575 -139 121 -184 160 -222 190 -23 19
-51 42 -61 51 -10 8 -31 24 -46 35 -14 10 -47 35 -73 55 -161 124 -537 369
-567 369 -8 0 -14 4 -14 10 0 5 -17 17 -37 27 -21 10 -68 34 -105 54 -38 21
-68 35 -68 32 0 -3 -6 0 -14 6 -27 22 -377 183 -406 186 -3 0 -48 17 -100 37
-85 33 -302 105 -340 113 -8 1 -35 8 -60 15 -64 17 -66 18 -165 40 -89 20
-168 35 -235 46 -19 3 -46 7 -60 10 -54 10 -119 17 -275 29 -49 4 -93 9 -96
11 -3 2 -9 1 -12 -2z"/>
</g>
</svg>
