<svg width="181" height="93" viewBox="0 0 181 93" fill="none" xmlns="http://www.w3.org/2000/svg">
<path d="M19.684 92.3801H161.754L180.91 64.5068H0.927597L19.684 92.3801Z" fill="#131629"/>
<path d="M13.6697 92.3801H21.6335L13.6697 64.5068H0.927597L13.6697 92.3801Z" fill="#0F2588"/>
<path d="M168.167 92.3801H160.204L168.167 64.5068H180.909L168.167 92.3801Z" fill="#0F2588"/>
<path fill-rule="evenodd" clip-rule="evenodd" d="M52.6392 0C26.9133 0 5.386 19.5212 2.87746 45.1245L0.927597 65.0256H74.991V69.638C74.991 75.1609 79.4681 79.638 84.9909 79.638H96.8462C102.369 79.638 106.846 75.1609 106.846 69.638V65.0256H180.91L178.96 45.1245C176.451 19.5212 154.924 0 129.198 0H52.6392Z" fill="#0F2588"/>
</svg>