<svg width="212" height="84" viewBox="0 0 212 84" fill="none" xmlns="http://www.w3.org/2000/svg">
<path d="M15.9276 0.380127H195.91V71.258H15.9276V0.380127Z" fill="#0F2588"/>
<path d="M47.7828 84H164.054L195.91 71.2579H15.9276L47.7828 84Z" fill="#081D68"/>
<path fill-rule="evenodd" clip-rule="evenodd" d="M16.2234 25.0679C14.9814 25.0679 13.7565 24.7787 12.6457 24.2233L2.87211 19.3365C1.21299 18.856 0 17.3253 0 15.5113C0 13.3122 1.78276 11.5294 3.9819 11.5294H15.9276V18.6968H18.3167L24.6878 25.0679H16.2234Z" fill="#0F2588"/>
<path fill-rule="evenodd" clip-rule="evenodd" d="M195.614 25.0679C196.856 25.0679 198.081 24.7787 199.191 24.2233L208.965 19.3365C210.624 18.856 211.837 17.3253 211.837 15.5113C211.837 13.3122 210.054 11.5294 207.855 11.5294H195.909V18.6968H193.52L187.149 25.0679H195.614Z" fill="#0F2588"/>
</svg>