<svg width="56" height="74" viewBox="0 0 56 74" fill="none" xmlns="http://www.w3.org/2000/svg">
<path d="M18.944 6.86584C18.9043 5.10854 18.8805 3.70624 19.467 2.25196C21.0481 4.98861 23.7995 5.98418 26.6127 7.00215C26.6576 7.0184 26.7025 7.03465 26.7474 7.05091C30.8161 8.52393 35.5441 10.2369 39.4663 16.9208C39.9836 17.8024 40.5761 18.5106 41.1877 19.0079C41.7771 19.4872 42.4862 19.8509 43.2188 19.8379C43.6039 19.8311 43.9914 19.7178 44.3264 19.4662C44.6578 19.2174 44.8793 18.8774 45.0128 18.5089C45.0325 18.4547 45.0504 18.3993 45.0667 18.343C55.1443 27.6306 58.0361 45.1783 51.5117 58.1731L51.5117 58.1731L51.5073 58.1821C50.8581 59.508 50.0854 60.7986 49.1864 62.039L49.1271 62.1204L49.1228 62.1264C49.0853 62.1786 49.1174 62.1328 49.0649 62.2053C40.5146 73.813 24.0227 76.4852 12.1318 68.1379C0.193713 59.7575 -2.57329 43.4519 5.93451 31.7134C6.87415 30.417 7.9116 29.2308 9.02979 28.1573C9.05683 28.1314 9.08224 28.1041 9.10596 28.0756C14.0536 22.6413 16.5596 18.4784 17.8017 15.0711C19.0518 11.6422 18.9932 9.04761 18.9443 6.88026L18.944 6.86584Z" fill="#10183C" stroke="#0D38D5" stroke-width="2" stroke-linejoin="round"/>
</svg>