<svg width="1024" height="1025" viewBox="0 0 1024 1025" fill="none" xmlns="http://www.w3.org/2000/svg">
<path d="M803.496 172.866C839.333 172.866 868.771 185.239 891.809 209.983C914.847 233.875 926.366 263.739 926.366 299.576C926.366 315.788 923.806 332.427 918.687 349.492C909.301 378.503 895.222 400.261 876.45 414.767C858.532 429.273 838.053 436.525 815.015 436.525C787.711 436.525 761.259 427.566 735.661 409.647L671.667 469.803C692.998 527.825 710.49 570.915 724.142 599.072C737.795 627.23 748.887 645.575 757.42 654.108C765.952 661.787 775.765 665.627 786.857 665.627C792.83 665.627 800.51 663.494 809.895 659.228C819.281 654.108 826.534 651.548 831.654 651.548C836.773 651.548 841.04 654.108 844.453 659.228C847.866 663.494 849.572 669.467 849.572 677.146C849.572 681.412 848.719 687.812 847.013 696.345C840.186 725.356 825.681 751.807 803.496 775.698C781.311 799.59 754.86 818.788 724.142 833.294C693.425 846.946 662.281 853.772 630.71 853.772C599.139 853.772 571.834 849.932 548.796 842.253C525.758 833.72 502.293 815.375 478.402 787.217C454.51 759.06 430.192 716.823 405.448 660.507L373.45 732.182C352.972 777.405 332.067 809.402 310.735 828.174C290.257 846.093 265.939 855.052 237.781 855.052C200.237 855.052 169.52 843.106 145.628 819.215C121.737 795.323 109.791 765.032 109.791 728.342C109.791 711.277 112.351 694.638 117.471 678.426C126.857 649.415 140.509 627.657 158.427 613.151C177.199 598.646 198.104 591.393 221.142 591.393C248.447 591.393 274.898 600.352 300.496 618.271L364.491 558.116C344.013 500.094 327.374 457.004 314.575 428.846C301.776 399.835 290.684 381.49 281.298 373.81C272.765 365.278 262.952 361.011 251.86 361.011C245.887 361.011 238.208 363.571 228.822 368.691C220.289 372.957 213.463 375.09 208.343 375.09C195.544 375.09 189.145 366.131 189.145 348.212C189.145 345.653 189.998 340.106 191.705 331.574C202.797 287.204 229.675 249.66 272.338 218.943C315.002 188.225 360.651 172.866 409.287 172.866C440.005 172.866 466.883 177.559 489.921 186.945C513.812 196.331 537.277 215.103 560.315 243.261C584.207 271.418 608.098 312.375 631.99 366.131L667.827 285.497C686.599 244.541 706.224 215.53 726.702 198.464C747.18 181.399 772.778 172.866 803.496 172.866Z" fill="#FFC700"/>
</svg>