<svg width="1024" height="1024" viewBox="0 0 1024 1024" fill="none" xmlns="http://www.w3.org/2000/svg">
<path d="M1009 512C1009 786.486 786.486 1009 512 1009C237.514 1009 15 786.486 15 512C15 237.514 237.514 15 512 15C786.486 15 1009 237.514 1009 512ZM139.25 512C139.25 717.864 306.136 884.75 512 884.75C717.864 884.75 884.75 717.864 884.75 512C884.75 306.136 717.864 139.25 512 139.25C306.136 139.25 139.25 306.136 139.25 512Z" fill="#FFC700"/>
<path d="M551.144 374.907C580.965 374.907 579.68 380.578 593.562 391.92C607.444 403.262 614.386 418.729 614.386 438.32C614.386 450.178 612.586 461.52 608.987 472.347L538.033 703.573C536.49 709.76 535.719 715.173 535.719 719.813C535.719 726.516 537.004 731.929 539.575 736.053C542.146 739.662 545.745 743.271 550.373 746.88C553.972 750.489 556.542 753.582 558.085 756.16C559.627 758.222 559.885 761.058 558.856 764.667C556.285 771.369 551.144 776.267 543.431 779.36C535.719 782.453 523.893 784 507.954 784H355.248C341.88 784 332.111 781.938 325.941 777.813C319.771 773.173 317.715 767.244 319.771 760.027C321.828 753.84 327.227 748.427 335.967 743.787C343.68 739.662 350.107 734.764 355.248 729.093C360.39 723.422 364.76 714.4 368.359 702.027L435.458 478.533C437 473.893 437.771 470.027 437.771 466.933C437.771 461.262 436.486 456.88 433.915 453.787C431.344 450.178 427.488 446.569 422.346 442.96C417.205 438.836 413.606 435.227 411.549 432.133C409.492 429.04 409.235 424.916 410.778 419.76C413.863 407.902 430.059 397.591 459.366 388.827C488.673 379.547 519.266 374.907 551.144 374.907ZM602.817 204C622.869 204 639.58 210.702 652.948 224.107C666.316 236.996 673 252.978 673 272.053C673 285.458 669.401 298.604 662.203 311.493C655.518 324.382 645.749 334.951 632.895 343.2C620.556 350.933 606.673 354.8 591.248 354.8C571.71 354.8 555.257 348.356 541.889 335.467C529.035 322.062 522.351 305.564 521.837 285.973C521.837 273.084 525.179 260.453 531.863 248.08C538.547 235.191 548.059 224.622 560.399 216.373C572.739 208.124 586.878 204 602.817 204Z" fill="#FFC700"/>
</svg>