<svg width="1024" height="1024" viewBox="0 0 1024 1024" fill="none" xmlns="http://www.w3.org/2000/svg">
<path fill-rule="evenodd" clip-rule="evenodd" d="M512 1009C786.486 1009 1009 786.486 1009 512C1009 237.514 786.486 15 512 15C237.514 15 15 237.514 15 512C15 786.486 237.514 1009 512 1009ZM512 884.75C306.136 884.75 139.25 717.864 139.25 512C139.25 306.136 306.136 139.25 512 139.25C717.864 139.25 884.75 306.136 884.75 512C884.75 717.864 717.864 884.75 512 884.75ZM508.944 629C509.477 625.267 507.077 620.2 501.744 613.8C497.477 607.4 495.344 602.6 495.344 599.4L496.144 596.2C498.277 590.867 503.077 586.6 510.544 583.4C518.01 580.2 531.877 576.733 552.144 573C605.477 563.933 647.077 554.333 676.944 544.2C707.344 533.533 730.277 520.467 745.744 505C761.744 489 772.944 467.933 779.344 441.8C782.01 430.067 783.344 419.4 783.344 409.8C783.344 378.333 772.944 349 752.144 321.8C731.344 294.067 701.477 271.933 662.544 255.4C623.61 238.867 578.277 230.6 526.544 230.6C465.744 230.6 415.344 239.933 375.344 258.6C335.877 276.733 312.144 302.867 304.144 337C302.01 345 300.944 353.267 300.944 361.8C300.944 386.333 309.744 406.6 327.344 422.6C344.944 438.067 368.144 445.8 396.944 445.8C420.944 445.8 440.677 440.2 456.144 429C471.61 417.8 482.277 402.067 488.144 381.8C489.744 375.4 490.544 368.2 490.544 360.2C490.544 343.133 487.61 326.867 481.744 311.4C492.944 307.133 506.01 305 520.944 305C534.81 305 547.877 309.8 560.144 319.4C572.41 329 578.544 342.867 578.544 361C578.544 367.4 577.744 374.333 576.144 381.8C570.277 403.133 559.61 420.467 544.144 433.8C528.677 447.133 506.544 461.8 477.744 477.8C451.077 493.267 430.81 506.6 416.944 517.8C403.61 528.467 394.544 542.333 389.744 559.4C387.61 565.8 386.544 572.733 386.544 580.2C386.544 599.933 394.277 616.2 409.744 629C425.744 641.267 446.277 647.4 471.344 647.4C479.877 647.4 487.877 645.8 495.344 642.6C502.81 638.867 507.344 634.333 508.944 629ZM491.344 684.2C476.944 671.933 459.077 665.8 437.744 665.8C420.677 665.8 405.21 669.8 391.344 677.8C378.01 685.267 367.344 694.867 359.344 706.6C351.877 718.333 348.144 730.333 348.144 742.6C348.144 760.733 355.077 776.2 368.944 789C383.344 801.267 401.477 807.4 423.344 807.4C440.41 807.4 455.877 803.667 469.744 796.2C483.61 788.2 494.277 778.067 501.744 765.8C509.744 753.533 513.477 741 512.944 728.2C512.944 710.6 505.744 695.933 491.344 684.2Z" fill="#FFC700"/>
</svg>