<svg width="1024" height="1024" viewBox="0 0 1024 1024" fill="none" xmlns="http://www.w3.org/2000/svg">
<path d="M511.858 112.406C511.858 103.497 501.086 99.0356 494.787 105.335L94.9289 505.193C91.0237 509.098 91.0237 515.43 94.9289 519.335L494.787 919.193C501.086 925.493 511.858 921.031 511.858 912.122V112.406Z" fill="#FFC700"/>
<rect x="357" y="350" width="522" height="323" fill="#FFC700"/>
<path d="M511.858 112.406C511.858 103.497 501.086 99.0356 494.787 105.335L94.9289 505.193C91.0237 509.098 91.0237 515.43 94.9289 519.335L494.787 919.193C501.086 925.493 511.858 921.031 511.858 912.122V112.406Z" fill="#FFC700"/>
<path d="M357 350H879V673H357V350Z" fill="#FFC700"/>
</svg>
