<svg width="1024" height="1024" viewBox="0 0 1024 1024" fill="none" xmlns="http://www.w3.org/2000/svg">
<g clip-path="url(#clip0)">
<path d="M456 905.75C456 874.684 481.184 849.5 512.25 849.5C543.316 849.5 568.5 874.684 568.5 905.75C568.5 936.816 543.316 962 512.25 962C481.184 962 456 936.816 456 905.75Z" fill="#FF7A00"/>
<path d="M456 120.25C456 89.1841 481.184 64.0001 512.25 64.0001C543.316 64.0001 568.5 89.1841 568.5 120.25C568.5 151.316 543.316 176.5 512.25 176.5C481.184 176.5 456 151.316 456 120.25Z" fill="#FF7A00"/>
<path d="M118.5 455.75C149.566 455.75 174.75 480.934 174.75 512C174.75 543.066 149.566 568.25 118.5 568.25C87.434 568.25 62.25 543.066 62.25 512C62.25 480.934 87.434 455.75 118.5 455.75Z" fill="#FF7A00"/>
<path d="M906 486C891.641 486 880 497.641 880 512C880 526.36 891.641 538 906 538C920.359 538 932 526.36 932 512C932 497.641 920.359 486 906 486Z" fill="#FF7A00"/>
<path d="M273.601 193.802C295.568 215.769 295.568 251.385 273.601 273.352C251.634 295.319 216.019 295.319 194.052 273.352C172.085 251.385 172.085 215.769 194.052 193.802C216.019 171.835 251.634 171.835 273.601 193.802Z" fill="#FF7A00"/>
<path d="M760.298 820.799C743.523 804.023 743.523 776.824 760.298 760.049C777.074 743.273 804.273 743.273 821.048 760.049C837.824 776.824 837.824 804.023 821.048 820.799C804.273 837.574 777.074 837.574 760.298 820.799Z" fill="#FF7A00"/>
<path d="M194.052 750.649C216.019 728.682 251.634 728.682 273.601 750.649C295.568 772.616 295.568 808.232 273.601 830.198C251.634 852.165 216.019 852.165 194.052 830.198C172.085 808.232 172.085 772.616 194.052 750.649Z" fill="#FF7A00"/>
<path d="M803.125 246.029C796.248 252.906 785.098 252.906 778.222 246.029C771.345 239.152 771.345 228.002 778.222 221.125C785.098 214.248 796.248 214.248 803.125 221.125C810.002 228.002 810.002 239.152 803.125 246.029Z" fill="#FF7A00"/>
<path d="M729.75 121.677L519 0V243.353L729.75 121.677Z" fill="#FF7A00"/>
</g>
<defs>
<clipPath id="clip0">
<rect width="1024" height="1024" fill="white"/>
</clipPath>
</defs>
</svg>