<svg width="1104" height="1024" viewBox="0 0 1104 1024" fill="none" xmlns="http://www.w3.org/2000/svg">
<path d="M864.151 294.398C856.288 282.044 848.234 270.931 839.961 261.151C818.873 235.44 794.885 215.1 767.338 204.215C743.05 194.361 716.137 190 687.463 190C639.174 190 594.301 205.439 553.678 234.687C512.823 264.103 484.81 301.956 473.236 348.254L473.005 349.177L472.818 350.11C471.647 355.966 469.977 364.569 469.977 371.37C469.977 382.147 471.684 397.413 481.298 410.871C492.682 426.81 509.783 433.039 525.456 433.039C538.87 433.039 551.012 428.043 559.428 423.869C560.114 424.81 561.121 426.28 562.427 428.441C565.703 433.858 569.744 441.73 574.506 452.525L574.596 452.728L574.689 452.931C582.486 470.086 592.525 495.434 604.858 529.402L593.716 539.876C575.431 531.799 556.057 527.43 535.775 527.43C508.069 527.43 482.668 536.387 460.754 553.32L460.396 553.597L460.044 553.882C437.914 571.797 423.332 596.853 414.134 625.286L414.09 625.419L414.048 625.553C408.685 642.535 406 660.013 406 677.842C406 717.027 419.163 751.946 446.609 779.391C474.239 807.021 509.604 820 549.189 820C581.211 820 610.273 809.499 634.348 788.433L634.39 788.396L634.433 788.359C654.276 770.897 671.393 745.476 686.681 714.944C695.158 728.608 703.814 740.733 712.685 751.189C734.328 776.697 758.585 797.02 786.047 807.191L786.665 807.42L787.291 807.628C810.958 815.517 837.447 818.968 865.981 818.968C897.388 818.968 928.012 812.141 957.555 799.01L957.975 798.824L958.39 798.628C987.569 784.849 1013.1 766.395 1034.6 743.241C1056.75 719.387 1072.07 691.971 1079.31 661.207L1079.46 660.55L1079.59 659.89C1081.07 652.51 1082.44 644.144 1082.44 636.567C1082.44 625.327 1080.06 611.109 1070.62 598.525C1062.03 586.43 1047.56 575.929 1027.99 575.929C1014.37 575.929 1001.94 581.386 993.529 585.806C992.654 584.51 991.645 582.934 990.501 581.043C986.883 575.06 982.488 566.866 977.302 556.17C969.083 539.218 958.592 514.097 945.777 480.329L956.633 470.124C974.918 478.201 994.291 482.57 1014.57 482.57C1042.17 482.57 1067.44 473.67 1088.92 456.4C1111.83 438.558 1126.92 413.445 1136.22 384.714L1136.35 384.306L1136.47 383.895C1141.61 366.774 1144.35 349.486 1144.35 332.158C1144.35 293.932 1131.73 259.715 1105.52 232.411C1078.92 203.975 1044.42 190 1005.29 190C972.668 190 942.542 199.263 917.766 219.909C896.713 237.453 879.247 263.476 864.151 294.398Z" fill="#FF3257" stroke="#080C23" stroke-width="80"/>
<path d="M681.151 294.398C673.288 282.044 665.234 270.931 656.961 261.151C635.873 235.44 611.885 215.1 584.338 204.215C560.05 194.361 533.137 190 504.463 190C456.174 190 411.301 205.439 370.678 234.687C329.823 264.103 301.81 301.956 290.236 348.254L290.005 349.177L289.818 350.11C288.647 355.966 286.977 364.569 286.977 371.37C286.977 382.147 288.684 397.413 298.298 410.871C309.682 426.81 326.783 433.039 342.456 433.039C355.87 433.039 368.012 428.043 376.428 423.869C377.114 424.81 378.121 426.28 379.427 428.441C382.703 433.858 386.744 441.73 391.506 452.525L391.596 452.728L391.689 452.931C399.486 470.086 409.525 495.434 421.858 529.402L410.716 539.876C392.431 531.799 373.057 527.43 352.775 527.43C325.069 527.43 299.668 536.387 277.754 553.32L277.396 553.597L277.044 553.882C254.914 571.797 240.332 596.853 231.134 625.286L231.09 625.419L231.048 625.553C225.685 642.535 223 660.013 223 677.842C223 717.027 236.163 751.946 263.609 779.391C291.239 807.021 326.604 820 366.189 820C398.211 820 427.273 809.499 451.348 788.433L451.39 788.396L451.433 788.359C471.276 770.897 488.393 745.476 503.681 714.944C512.158 728.608 520.814 740.733 529.685 751.189C551.328 776.697 575.585 797.02 603.047 807.191L603.665 807.42L604.291 807.628C627.958 815.517 654.447 818.968 682.981 818.968C714.388 818.968 745.012 812.141 774.555 799.01L774.975 798.824L775.39 798.628C804.569 784.849 830.098 766.395 851.599 743.241C873.749 719.387 889.069 691.971 896.308 661.207L896.463 660.55L896.595 659.89C898.07 652.51 899.435 644.144 899.435 636.567C899.435 625.327 897.057 611.109 887.621 598.525C879.03 586.43 864.563 575.929 844.989 575.929C831.371 575.929 818.945 581.386 810.529 585.806C809.654 584.51 808.645 582.934 807.501 581.043C803.883 575.06 799.488 566.866 794.302 556.17C786.083 539.218 775.592 514.097 762.777 480.329L773.633 470.124C791.918 478.201 811.291 482.57 831.574 482.57C859.167 482.57 884.436 473.67 905.923 456.4C928.832 438.558 943.92 413.445 953.215 384.714L953.347 384.306L953.471 383.895C958.607 366.774 961.349 349.486 961.349 332.158C961.349 293.932 948.728 259.715 922.523 232.411C895.92 203.975 861.418 190 822.287 190C789.668 190 759.542 199.263 734.766 219.909C713.713 237.453 696.247 263.476 681.151 294.398Z" fill="#FF3257" stroke="#080C23" stroke-width="80"/>
<path d="M498.151 294.398C490.288 282.044 482.234 270.931 473.961 261.151C452.873 235.44 428.885 215.1 401.338 204.215C377.05 194.361 350.137 190 321.463 190C273.174 190 228.301 205.439 187.678 234.687C146.823 264.103 118.81 301.956 107.236 348.254L107.005 349.177L106.818 350.11C105.647 355.966 103.977 364.569 103.977 371.37C103.977 382.147 105.684 397.413 115.298 410.871C126.682 426.81 143.783 433.039 159.456 433.039C172.87 433.039 185.012 428.043 193.428 423.869C194.114 424.81 195.121 426.28 196.427 428.441C199.703 433.858 203.744 441.73 208.506 452.525L208.596 452.728L208.689 452.931C216.486 470.086 226.525 495.434 238.858 529.402L227.716 539.876C209.431 531.799 190.057 527.43 169.775 527.43C142.069 527.43 116.668 536.387 94.7541 553.32L94.3959 553.597L94.0441 553.882C71.9136 571.797 57.3322 596.853 48.1336 625.286L48.0904 625.419L48.0481 625.553C42.6852 642.535 40 660.013 40 677.842C40 717.027 53.1633 751.946 80.6088 779.391C108.239 807.021 143.604 820 183.189 820C215.211 820 244.273 809.499 268.348 788.433L268.39 788.396L268.433 788.359C288.276 770.897 305.393 745.476 320.681 714.944C329.158 728.608 337.814 740.733 346.685 751.189C368.328 776.697 392.585 797.02 420.047 807.191L420.665 807.42L421.291 807.628C444.958 815.517 471.447 818.968 499.981 818.968C531.388 818.968 562.012 812.141 591.555 799.01L591.975 798.824L592.39 798.628C621.569 784.849 647.098 766.395 668.599 743.241C690.749 719.387 706.069 691.971 713.308 661.207L713.463 660.55L713.595 659.89C715.07 652.51 716.435 644.144 716.435 636.567C716.435 625.327 714.057 611.109 704.621 598.525C696.03 586.43 681.563 575.929 661.989 575.929C648.371 575.929 635.945 581.386 627.529 585.806C626.654 584.51 625.645 582.934 624.501 581.043C620.883 575.06 616.488 566.866 611.302 556.17C603.083 539.218 592.592 514.097 579.777 480.329L590.633 470.124C608.918 478.201 628.291 482.57 648.574 482.57C676.167 482.57 701.436 473.67 722.923 456.4C745.832 438.558 760.92 413.445 770.215 384.714L770.347 384.306L770.471 383.895C775.607 366.774 778.349 349.486 778.349 332.158C778.349 293.932 765.728 259.715 739.523 232.411C712.92 203.975 678.418 190 639.287 190C606.668 190 576.542 199.263 551.766 219.909C530.713 237.453 513.247 263.476 498.151 294.398Z" fill="#FF3257" stroke="#080C23" stroke-width="80"/>
</svg>
