<svg width="1024" height="1024" viewBox="0 0 1024 1024" fill="none" xmlns="http://www.w3.org/2000/svg">
<path d="M472 63.7533C242.209 83.9936 62 276.952 62 512C62 760.528 263.472 962 512 962C760.528 962 962 760.528 962 512C962 327.262 850.68 168.525 691.46 99.2083L748.353 197.75H635.346C760.734 247.004 849.5 369.136 849.5 512C849.5 698.396 698.396 849.5 512 849.5C325.604 849.5 174.5 698.396 174.5 512C174.5 339.138 304.457 196.629 472 176.845V63.7533Z" fill="#F13BF4"/>
<path d="M652 123.5L441.25 1.82324V245.176L652 123.5Z" fill="#F13BF4"/>
</svg>