<svg width="1024" height="1024" viewBox="0 0 1024 1024" fill="none" xmlns="http://www.w3.org/2000/svg">
<g clip-path="url(#clip0)">
<path fill-rule="evenodd" clip-rule="evenodd" d="M183.964 732.56C311.107 549.459 431.138 376.601 691.427 200.682C413.083 302.923 197.845 659.081 85.2058 845.466C43.0565 915.211 15.2737 961.184 3.9268 961.184C-16.5732 961.184 43.4268 768.182 178.427 586.682C178.427 586.682 122.427 621.182 47.9268 750.682C19.2797 736.359 150.665 295.607 402.562 81.0095C382.656 121.578 383.813 148.107 385.053 176.543C385.879 195.5 386.742 215.304 381.427 240.682C397.807 207.159 406.333 175.813 414.184 146.947C425.733 104.485 435.822 67.3906 467.308 36.6329C727.049 -98.2527 1088.95 170.265 742.927 341.182C524.976 448.837 363.817 610.186 262.781 711.341C191.6 782.606 150.26 823.995 139.927 795.682C154.845 774.495 169.45 753.461 183.964 732.56Z" fill="#FFC700"/>
<path fill-rule="evenodd" clip-rule="evenodd" d="M948.387 593.5C967.862 624.329 967.434 641.668 948.387 672.5C928.712 694.734 885.066 708.306 833.387 711C871.357 719.064 900.52 713.128 923.911 708.367C935.327 706.044 945.368 704 954.388 704C1014.89 711 1038.07 862.011 1016.39 919C981.387 1011 933.387 1024 718.387 1024C503.387 1024 445.324 980.5 420.356 919C395.387 857.5 421.855 711 482.355 704C491.375 704 501.416 706.044 512.832 708.367C536.223 713.128 565.386 719.064 603.355 711C551.676 708.306 508.031 694.734 488.356 672.5C471.464 641.645 469.684 624.354 488.356 593.5C488.356 593.5 488.388 546 718.387 546C948.387 546 948.387 593.5 948.387 593.5ZM539 617C677.026 633.719 755.027 633.498 897 617C897 617 897 643 718 643C539 643 539 617 539 617Z" fill="#FFC700"/>
<path d="M183.964 732.56C311.107 549.459 431.138 376.601 691.427 200.682C413.083 302.923 197.845 659.081 85.2058 845.466C43.0565 915.211 15.2737 961.184 3.9268 961.184C-16.5732 961.184 43.4268 768.182 178.427 586.682C178.427 586.682 122.427 621.182 47.9268 750.682C19.2797 736.359 150.665 295.607 402.562 81.0095C382.656 121.578 383.813 148.107 385.053 176.543C385.879 195.5 386.742 215.304 381.427 240.682C397.807 207.159 406.333 175.813 414.184 146.947C425.733 104.485 435.822 67.3906 467.308 36.6329C727.049 -98.2527 1088.95 170.265 742.927 341.182C524.976 448.837 363.817 610.186 262.781 711.341C191.6 782.606 150.26 823.995 139.927 795.682C154.845 774.495 169.45 753.461 183.964 732.56Z" fill="#FFC700"/>
<path fill-rule="evenodd" clip-rule="evenodd" d="M948.387 593.5C967.862 624.329 967.434 641.668 948.387 672.5C928.712 694.734 885.066 708.306 833.387 711C871.357 719.064 900.52 713.128 923.911 708.367C935.327 706.044 945.368 704 954.388 704C1014.89 711 1038.07 862.011 1016.39 919C981.387 1011 933.387 1024 718.387 1024C503.387 1024 445.324 980.5 420.356 919C395.387 857.5 421.855 711 482.355 704C491.375 704 501.416 706.044 512.832 708.367C536.223 713.128 565.386 719.064 603.355 711C551.676 708.306 508.031 694.734 488.356 672.5C471.464 641.645 469.684 624.354 488.356 593.5C488.356 593.5 488.388 546 718.387 546C948.387 546 948.387 593.5 948.387 593.5ZM539 617C677.026 633.719 755.027 633.498 897 617C897 617 897 643 718 643C539 643 539 617 539 617Z" fill="#FFC700"/>
</g>
<defs>
<clipPath id="clip0">
<rect width="1024" height="1024" fill="white"/>
</clipPath>
</defs>
</svg>