<svg width="1024" height="1024" viewBox="0 0 1024 1024" fill="none" xmlns="http://www.w3.org/2000/svg">
<path d="M973.611 194.781L765.972 298.6C759.323 301.925 751.5 297.122 751.5 289.688V243.837C668.07 243.97 609.622 277.358 560.894 330.97C517.37 378.858 482.694 441.66 448.037 511.913C447.677 512.643 447.317 513.374 446.957 514.106C441.227 525.747 435.495 537.589 429.721 549.6C426.894 555.48 424.053 561.411 421.195 567.378L421.193 567.382L421.133 567.506L421.11 567.555C419.955 569.965 418.797 572.382 417.637 574.804C407.749 595.432 397.629 616.45 387.098 637.383C359.305 692.632 328.659 747.287 291.935 792.619C233.279 865.022 155.07 918.837 44 918.837V806.837C112.18 806.837 161.033 776.276 204.909 722.117C248.511 668.295 283.005 596.431 321.857 515.487C324.148 510.714 326.455 505.908 328.779 501.073C346.762 463.667 365.8 424.552 387.098 386.444C413.253 339.645 442.815 294.366 478.012 255.64C544.127 182.898 631.205 131.978 751.5 131.837V81.9849C751.5 74.5511 759.323 69.7481 765.972 73.0726L973.611 176.892C980.982 180.578 980.982 191.096 973.611 194.781Z" fill="#FFC700"/>
<path d="M291.935 231.208C319.268 264.948 343.234 303.852 365.163 344.322C341.152 384.97 320.314 426.684 301.358 465.843C270.379 402.274 240.715 345.908 204.909 301.71C161.033 247.551 112.18 216.99 44 216.99V104.99C155.07 104.99 233.279 158.804 291.935 231.208Z" fill="#FFC700"/>
<path d="M478.012 768.186C453.181 740.866 431.154 710.283 411.15 678.207C427.268 647.292 442.099 616.328 456.119 587.059L456.121 587.055L457.197 584.81C460.082 578.787 462.935 572.832 465.771 566.931C467.436 563.469 469.092 560.03 470.742 556.616C498.195 608.778 526.836 655.383 560.894 692.856C609.524 746.361 667.837 779.723 751 779.988V728C751 722.477 755.477 718 761 718H975C980.523 718 985 722.477 985 728V942C985 947.523 980.523 952 975 952H761C755.477 952 751 947.523 751 942V891.989C630.964 891.708 544.035 840.828 478.012 768.186Z" fill="#FFC700"/>
</svg>