<svg width="1024" height="1025" viewBox="0 0 1024 1025" fill="none" xmlns="http://www.w3.org/2000/svg">
<path d="M763.661 212C795.26 212 821.216 222.909 841.53 244.727C861.843 265.793 872 292.125 872 323.724C872 338.019 869.743 352.69 865.229 367.737C856.953 393.317 844.539 412.502 827.988 425.292C812.188 438.082 794.132 444.477 773.818 444.477C749.743 444.477 726.42 436.577 703.85 420.777L647.423 473.818C666.232 524.978 681.655 562.972 693.693 587.799C705.73 612.627 715.511 628.803 723.035 636.326C730.558 643.097 739.21 646.483 748.991 646.483C754.257 646.483 761.028 644.602 769.304 640.84C777.58 636.326 783.975 634.069 788.489 634.069C793.003 634.069 796.765 636.326 799.774 640.84C802.784 644.602 804.288 649.868 804.288 656.64C804.288 660.401 803.536 666.044 802.031 673.567C796.013 699.147 783.223 722.47 763.661 743.536C744.1 764.602 720.777 781.53 693.693 794.32C666.608 806.357 639.147 812.376 611.31 812.376C583.473 812.376 559.398 808.991 539.085 802.22C518.771 794.696 498.082 778.52 477.016 753.693C455.95 728.865 434.508 691.624 412.69 641.969L384.477 705.166C366.42 745.041 347.987 773.254 329.179 789.806C311.122 805.605 289.68 813.505 264.853 813.505C231.749 813.505 204.665 802.972 183.599 781.906C162.533 760.84 152 734.132 152 701.781C152 686.734 154.257 672.063 158.771 657.768C167.047 632.188 179.085 613.003 194.884 600.213C211.436 587.423 229.868 581.028 250.182 581.028C274.257 581.028 297.58 588.928 320.15 604.727L376.577 551.687C358.52 500.527 343.85 462.533 332.564 437.705C321.279 412.125 311.498 395.95 303.223 389.179C295.699 381.655 287.047 377.893 277.266 377.893C272 377.893 265.229 380.151 256.953 384.665C249.429 388.426 243.411 390.307 238.897 390.307C227.611 390.307 221.969 382.408 221.969 366.608C221.969 364.351 222.721 359.461 224.226 351.937C234.006 312.815 257.705 279.712 295.323 252.627C332.94 225.542 373.191 212 416.075 212C443.16 212 466.859 216.138 487.172 224.414C508.238 232.69 528.928 249.241 549.241 274.069C570.307 298.897 591.373 335.009 612.439 382.408L644.038 311.31C660.589 275.198 677.893 249.618 695.95 234.571C714.006 219.524 736.577 212 763.661 212Z" fill="#FFC700"/>
</svg>